<svg xmlns="http://www.w3.org/2000/svg" viewBox="0 0 60 36.81"><g id="Layer_2" data-name="Layer 2"><g id="Layer_1-2" data-name="Layer 1"><path d="M59.27,17.44a55.42,55.42,0,0,0-8.77-9,42.93,42.93,0,0,0-9.16-5.83A27.26,27.26,0,0,0,30,0,27.26,27.26,0,0,0,18.66,2.64,42.93,42.93,0,0,0,9.5,8.47a56,56,0,0,0-8.77,9l-.73,1,.73,1a56,56,0,0,0,8.77,9,42.48,42.48,0,0,0,9.16,5.82A27.11,27.11,0,0,0,30,36.81a27.11,27.11,0,0,0,11.34-2.64,42.16,42.16,0,0,0,9.16-5.83,56.41,56.41,0,0,0,8.77-8.95l.73-1Zm-2.54,1a57.18,57.18,0,0,1-9.31,8.87c-6,4.5-11.86,6.78-17.42,6.78s-11.42-2.28-17.41-6.78a57.36,57.36,0,0,1-9.32-8.87,57.36,57.36,0,0,1,9.32-8.87C18.58,5,24.44,2.76,30,2.76S41.41,5,47.41,9.54A58.24,58.24,0,0,1,56.73,18.41Z"/><path d="M30,6.16A12.25,12.25,0,1,0,42.25,18.41,12.27,12.27,0,0,0,30,6.16Zm0,22a9.78,9.78,0,1,1,9.78-9.78A9.79,9.79,0,0,1,30,28.19Z"/></g></g></svg>