<svg xmlns="http://www.w3.org/2000/svg" viewBox="0 0 40 40"><g id="Layer_2" data-name="Layer 2"><g id="Layer_1-2" data-name="Layer 1"><g id="Instagram"><path d="M20,2.23c5.78,0,6.47,0,8.76.13a12.08,12.08,0,0,1,4,.75,7.08,7.08,0,0,1,4.1,4.1,12.08,12.08,0,0,1,.75,4c.11,2.29.13,3,.13,8.76s0,6.47-.13,8.76a12.08,12.08,0,0,1-.75,4,7.08,7.08,0,0,1-4.1,4.1,12.08,12.08,0,0,1-4,.75c-2.29.11-3,.13-8.76.13s-6.47,0-8.76-.13a12.08,12.08,0,0,1-4-.75,7.08,7.08,0,0,1-4.1-4.1,12.08,12.08,0,0,1-.75-4c-.11-2.29-.13-3-.13-8.76s0-6.47.13-8.76a12.08,12.08,0,0,1,.75-4,7.08,7.08,0,0,1,4.1-4.1,12.08,12.08,0,0,1,4-.75c2.29-.11,3-.13,8.76-.13M20,0c-5.43,0-6.12,0-8.25.12a14.6,14.6,0,0,0-4.85.93A10.16,10.16,0,0,0,1.05,6.9a14.6,14.6,0,0,0-.93,4.85C0,13.88,0,14.57,0,20s0,6.12.12,8.25a14.6,14.6,0,0,0,.93,4.85A10.16,10.16,0,0,0,6.9,39a14.6,14.6,0,0,0,4.85.93C13.88,40,14.57,40,20,40s6.12,0,8.25-.12A14.6,14.6,0,0,0,33.1,39,10.16,10.16,0,0,0,39,33.1a14.44,14.44,0,0,0,.93-4.77C40,26.12,40,25.43,40,20s0-6.12-.12-8.25A14.6,14.6,0,0,0,39,6.9,10.16,10.16,0,0,0,33.1,1.05,14.44,14.44,0,0,0,28.33.12C26.12,0,25.43,0,20,0Zm0,9.73A10.27,10.27,0,1,0,30.27,20h0A10.27,10.27,0,0,0,20,9.73ZM20,28a8,8,0,1,1,8-8A8,8,0,0,1,20,28ZM31.35,6.13a2.52,2.52,0,1,0,2.52,2.52,2.52,2.52,0,0,0-2.52-2.52Z"/></g></g></g></svg>