<svg xmlns="http://www.w3.org/2000/svg" viewBox="0 0 41.97 25.22"><g id="Layer_2" data-name="Layer 2"><g id="Layer_1-2" data-name="Layer 1"><path d="M41,0H39.91a.75.75,0,0,0-.39.09.83.83,0,0,0-.32.2A.72.72,0,0,0,39,.62a.69.69,0,0,0-.08.38l0,.27a1.1,1.1,0,0,0,.26.44,1,1,0,0,0,.71.29H41a.65.65,0,0,0,.38-.09.67.67,0,0,0,.32-.2.75.75,0,0,0,.21-.32A.86.86,0,0,0,42,1l0-.27a1.05,1.05,0,0,0-.26-.44A1,1,0,0,0,41,0Z"/><path d="M41,23.22H39.91a.66.66,0,0,0-.39.09.72.72,0,0,0-.32.2,1,1,0,0,0-.29.71l0,.27a1.17,1.17,0,0,0,.26.44,1,1,0,0,0,.71.29H41a.73.73,0,0,0,.38-.09.76.76,0,0,0,.32-.2.72.72,0,0,0,.21-.33.79.79,0,0,0,.09-.38l0-.27a1,1,0,0,0-.26-.44,1,1,0,0,0-.7-.29Z"/><path d="M41,11.61H1a1,1,0,0,0,0,2H41a1,1,0,0,0,0-2Z"/></g></g></svg>