<svg xmlns="http://www.w3.org/2000/svg" viewBox="0 0 38.95 42.01"><g id="Layer_2" data-name="Layer 2"><g id="Layer_1-2" data-name="Layer 1"><path d="M38,31.65c-.75-1.5-2.26-2.11-3.74-2.72A41.19,41.19,0,0,0,29,27.16c-1.67-.43-2.9.29-4.21,1.32-.62.49-1.51,1.64-2.39,1.44a5.52,5.52,0,0,1-1.52-1,35.09,35.09,0,0,1-3.63-3.05,27.81,27.81,0,0,1-5.47-7.14c-.27-.51-.95-1.47-.81-2s1.14-1.2,1.58-1.62a7.37,7.37,0,0,0,1.88-2.45c.5-1.28,0-2.91-.28-4.2a22,22,0,0,0-1.63-5.59A6.14,6.14,0,0,0,7.64,0C5.32-.06,3,2.06,1.63,3.72A5.88,5.88,0,0,0,0,7.56a24.51,24.51,0,0,0,.28,4.92c1.6,11.41,9,22,19.58,26.8,3.49,1.61,7.69,3,11.6,2.7.23,0,.46,0,.68-.07s-.6.21.17,0a4.87,4.87,0,0,0,.72-.28A12.34,12.34,0,0,0,36.74,39a6.8,6.8,0,0,0,2.12-3.14A6.55,6.55,0,0,0,38,31.65c-.55-1.16-2.28-.15-1.73,1s1,2.41.23,3.56a12.09,12.09,0,0,1-2.36,2.38,10,10,0,0,1-1.6,1,5.65,5.65,0,0,1-.67.29c.31-.1.05,0-.14,0,0,0-.58,0-.89,0a24.55,24.55,0,0,1-9.66-2.31A33.3,33.3,0,0,1,2.46,13.31,26,26,0,0,1,2,8.4a12.91,12.91,0,0,1,.09-1.52,1.87,1.87,0,0,1,.44-1.06C3.69,4,6.38,1.31,8.69,2.28c1.7.71,2.13,1.43,2.64,3.15a37.58,37.58,0,0,1,1.18,5.33c.23,1.46-.62,2.16-1.67,3.16-.85.81-2,1.57-2,2.88s1,2.63,1.57,3.66a29.15,29.15,0,0,0,4.64,6.11,39.51,39.51,0,0,0,3.35,3,14.54,14.54,0,0,0,3.48,2.36c2.52,1,3.74-2.62,6-2.93.4-.06-.23,0,.06,0l.34.08,1,.29q1.46.42,2.88.93c1.39.51,3.39,1,4.07,2.39C36.86,33.81,38.58,32.8,38,31.65Z"/></g></g></svg>