<svg xmlns="http://www.w3.org/2000/svg" viewBox="0 0 41.96 41.96"><g id="Layer_2" data-name="Layer 2"><g id="Layer_1-2" data-name="Layer 1"><path d="M21,0A21.27,21.27,0,0,0,1.28,13.72,21,21,0,0,0,31.77,39,21.24,21.24,0,0,0,41.59,17,21.22,21.22,0,0,0,21,0a1,1,0,0,0,0,2A19.19,19.19,0,0,1,38.87,14.57a19.2,19.2,0,0,1-5.78,21.08A19,19,0,0,1,2.34,17.32,19.21,19.21,0,0,1,21,2,1,1,0,0,0,21,0Z"/><path d="M21,8a5,5,0,1,1-4.92,4.11A5,5,0,0,1,21,8a1,1,0,0,0,0-2A7,7,0,0,0,16.5,18.37a7,7,0,0,0,11.35-6.71A7.06,7.06,0,0,0,21,6,1,1,0,0,0,21,8Z"/><path d="M21,34.4a13.58,13.58,0,0,1-10.46-5c-.5-.63-.63-.78-.2-1.51a4.72,4.72,0,0,1,1.49-1.46A14.51,14.51,0,0,1,16,24.58a17.3,17.3,0,0,1,8.69-.32,17.91,17.91,0,0,1,4.54,1.6c.87.46,2.64,1.47,2.69,2.64,0,.69-1.11,1.64-1.65,2.16a13.21,13.21,0,0,1-2.58,1.94A13.6,13.6,0,0,1,21,34.4a1,1,0,0,0,0,2A15.62,15.62,0,0,0,33.45,30c1.09-1.5.11-3.29-1.1-4.43a13.4,13.4,0,0,0-5-2.7,19.69,19.69,0,0,0-11-.48c-3,.73-8.06,2.46-8.31,6.21-.08,1.12,1.07,2.17,1.78,2.94A15.43,15.43,0,0,0,21,36.4,1,1,0,0,0,21,34.4Z"/></g></g></svg>