<svg xmlns="http://www.w3.org/2000/svg" viewBox="0 0 31.96 40"><g id="Layer_2" data-name="Layer 2"><g id="Layer_1-2" data-name="Layer 1"><path d="M32,34.67,29.66,8.73a1,1,0,0,0-1-.91H23.81a7.83,7.83,0,0,0-15.66,0H3.3a1,1,0,0,0-1,.91L0,34.67v.09C0,37.65,2.66,40,5.92,40H26C29.3,40,32,37.65,32,34.76ZM16,2a5.85,5.85,0,0,1,5.85,5.83H10.13A5.85,5.85,0,0,1,16,2ZM26,38H5.92C3.77,38,2,36.57,2,34.79l2.22-25H8.15V13.3a1,1,0,0,0,2,0V9.81h11.7V13.3a1,1,0,1,0,2,0V9.81h3.94L30,34.8C30,36.57,28.19,38,26,38Z"/></g></g></svg>