<svg xmlns="http://www.w3.org/2000/svg" viewBox="0 0 22 40"><g id="Layer_2" data-name="Layer 2"><g id="Layer_1-2" data-name="Layer 1"><circle cx="10.83" cy="35.35" r="1.5"/><path d="M17,0H5A5,5,0,0,0,0,5V35a5,5,0,0,0,5,5H17a5,5,0,0,0,5-5V5A5,5,0,0,0,17,0Zm3.37,35.27a3.16,3.16,0,0,1-3.12,3.21H4.78a3.16,3.16,0,0,1-3.12-3.21V32.78H20.37Zm0-4.22H1.66V9.43H20.37ZM1.66,7.73V5.13A3.24,3.24,0,0,1,4.78,1.78H17.25a3.24,3.24,0,0,1,3.12,3.35v2.6Z"/><path d="M12.17,3.58H9.83a1.17,1.17,0,0,0,0,2.34h2.34a1.17,1.17,0,0,0,0-2.34Z"/></g></g></svg>