<svg xmlns="http://www.w3.org/2000/svg" viewBox="0 0 40 24.54"><g id="Layer_2" data-name="Layer 2"><g id="Layer_1-2" data-name="Layer 1"><path d="M39.51,11.62a37.23,37.23,0,0,0-5.84-6,28.91,28.91,0,0,0-6.11-3.89A18.1,18.1,0,0,0,20,0a18.1,18.1,0,0,0-7.56,1.76A28.51,28.51,0,0,0,6.33,5.65a37.81,37.81,0,0,0-5.84,6L0,12.27l.49.65a37.16,37.16,0,0,0,5.84,6,28.84,28.84,0,0,0,6.11,3.88A18.1,18.1,0,0,0,20,24.54a18.1,18.1,0,0,0,7.56-1.76,28.51,28.51,0,0,0,6.11-3.89,37.52,37.52,0,0,0,5.84-6l.49-.66Zm-1.69.65a37.86,37.86,0,0,1-6.21,5.92c-4,3-7.9,4.52-11.61,4.52s-7.61-1.52-11.61-4.52a37.86,37.86,0,0,1-6.21-5.92A38.34,38.34,0,0,1,8.39,6.36c4-3,7.9-4.52,11.61-4.52s7.61,1.52,11.6,4.52A38.52,38.52,0,0,1,37.82,12.27Z"/><path d="M20,4.1a8.17,8.17,0,1,0,8.17,8.17A8.19,8.19,0,0,0,20,4.1Zm0,14.7a6.53,6.53,0,1,1,6.52-6.53A6.53,6.53,0,0,1,20,18.8Z"/></g></g></svg>